<?xml version="1.0" standalone="no"?><!DOCTYPE svg PUBLIC "-//W3C//DTD SVG 1.1//EN" "http://www.w3.org/Graphics/SVG/1.1/DTD/svg11.dtd"><svg t="1721898871257" class="icon" viewBox="0 0 1024 1024" version="1.1" xmlns="http://www.w3.org/2000/svg" p-id="1459" xmlns:xlink="http://www.w3.org/1999/xlink" width="10" height="10"><path d="M286.86 578.964s123.852 2.996 49.98 193.632c-30.912 79.768-3.504 159.74 68.724 159.74h192.92s126.016-0.04-66.932-377.988" fill="#FFFBD4" p-id="1460"></path><path d="M372.92 707.772s-1.604-47.2 47.2-47.2c48.8 0 18.032 28.292 87.78 65.216 0 0-94.368 80.004-71.8 209.244h84.108s-65.648-61.54 63.592-221.552c0 0-133.088-73.52-155.908-133.344h-90.8s52.228 68.616 35.828 127.64z" fill="#E8BE8E" opacity=".31" p-id="1461"></path><path d="M286.46 595.372l-0.116-0.004c1.2 0.048 29.52 1.424 45.744 26.128 18.8 28.632 15.156 78.832-10.552 145.172-20.252 52.26-17.68 106.84 6.704 142.44 17.508 25.564 44.968 39.64 77.324 39.64h192.92c2.732 0 27.16-0.776 43.468-27.412 34.504-56.38 2.284-182.364-95.78-374.452l-29.236 14.92c124.548 243.972 109.772 319.988 97.64 341.34-6.712 11.812-15.592 12.724-16.58 12.792 0-0.004 0.16-0.012 0.484-0.012h-192.916c-21.812 0-38.72-8.536-50.244-25.364-18.36-26.8-19.572-69.728-3.176-112.04 30.272-78.128 32.632-137.208 7.012-175.6-25.904-38.816-70.04-40.328-71.904-40.372l-0.792 32.824z" fill="#6E6E96" p-id="1462"></path><path d="M940.212 391.004c0 198.952-203.584 190.944-454.72 190.944-251.132 0-454.72 8.008-454.72-190.944S234.36 30.772 485.492 30.772c251.136 0 454.72 161.28 454.72 360.232z" fill="#FA9191" p-id="1463"></path><path d="M489.596 34.876c-251.136 0-454.72 161.28-454.72 360.232 0 198.952 203.584 190.94 454.716 190.94 251.14 0 454.72 8.012 454.72-190.94S740.732 34.876 489.6 34.876zM451.2 480.948c-193.668 0-350.68 6.172-350.68-147.26 0-153.428 157.012-277.812 350.684-277.812 193.68 0 350.68 124.384 350.68 277.812 0 153.44-157 147.26-350.68 147.26z" fill="#ED8A8A" p-id="1464"></path><path d="M923.8 391.004c0 48.424-12.688 84.632-38.78 110.696-64.308 64.224-206.628 64.052-371.424 63.856l-28.108-0.024-28.108 0.024c-164.796 0.2-307.112 0.368-371.416-63.86-26.096-26.06-38.78-62.268-38.78-110.692 0-189.584 196.624-343.82 438.308-343.82 241.68 0 438.308 154.24 438.308 343.82zM485.492 14.36C225.708 14.36 14.36 183.32 14.36 391.004c0 57.58 15.832 101.38 48.404 133.92 73.94 73.84 222.564 73.66 394.656 73.456l28.068-0.024 28.068 0.024c172.1 0.204 320.728 0.384 394.656-73.46 32.572-32.536 48.412-76.336 48.412-133.916 0-207.68-211.352-376.644-471.132-376.644z" fill="#6E6E96" p-id="1465"></path><path d="M624.048 664.144s-218.48 268.192-49.272 268.192h131.416s78.904 7.308 40.56-61.16c-39.768-71.012-64.232-87.576 20.892-172.7" fill="#FFFBD4" p-id="1466"></path><path d="M550.152 806.388s27.496-64.788 84.936-43.68c57.44 21.112-45.132 153.22 22.564 153.22s106.676 27.308 92.316-21.928c-14.36-49.232-70.488-69.988-33.192-131.408L581.8 721.52l-35.256 92.32" fill="#E8BE8E" opacity=".31" p-id="1467"></path><path d="M611.32 653.78c-15.108 18.548-146.56 183.356-110.808 258.6 11.468 24.136 36.452 36.368 74.264 36.368h131.416c-0.504 0-1.008-0.024-1.512-0.068 4.624 0.424 45.652 3.432 62.48-22.452 10.42-16.032 8.372-37.256-6.088-63.08-4.008-7.152-7.776-13.608-11.408-19.856-30.84-52.896-38.164-65.46 29.588-133.216l-23.204-23.208c-82.36 82.36-70.948 110.848-34.744 172.952 3.568 6.124 7.268 12.46 11.132 19.364 7.568 13.52 10.264 24.408 7.216 29.14-4.164 6.444-21.252 8.596-31.992 7.664a17.316 17.316 0 0 0-1.46-0.064h-131.416c-24.04 0-39.06-5.936-44.616-17.636-20.32-42.752 54.612-159.948 106.608-223.784l-25.456-20.724z" fill="#6E6E96" p-id="1468"></path><path d="M985.972 685.668c-36.396 130.54-168.52 88.048-333.312 42.116-164.796-45.94-276.168-135.828-215.12-256.832 36.4-72.136 151.148-150.8 315.952-104.856 164.784 45.94 268.88 189.02 232.48 319.572z" fill="#FFDF80" p-id="1469"></path><path d="M751.772 374.62c-28.968-8.08-56.288-12.052-81.784-12.732 18.332 1.288 37.704 4.56 58.04 10.232 131.08 36.544 213.88 150.348 184.92 254.196-28.952 103.84-134.04 70.036-265.12 33.5-131.08-36.544-219.668-108.044-171.112-204.288 11.276-22.348 32.04-45.456 60.888-63.216-39.58 21.584-67.78 51.708-82.424 80.732-57.308 113.592 47.24 197.968 201.936 241.092 154.696 43.124 278.724 83.008 312.888-39.536 34.172-122.552-63.544-256.86-218.232-299.98z" fill="#E8A558" opacity=".41" p-id="1470"></path><path d="M970.164 681.26c-8.464 30.364-22.6 50.772-43.22 62.384-52.06 29.32-144.456 3.448-251.436-26.52l-18.44-5.156c-111.648-31.12-186.664-78.896-211.228-134.528-13.516-30.604-11.372-63.944 6.36-99.092 31.86-63.16 137.228-140.956 296.888-96.44 155.808 43.432 254.988 177.72 221.08 299.352z m-212.264-330.972c-178.72-49.824-298.26 40.44-335.008 113.272-22.372 44.344-24.752 87.116-7.08 127.14 28.6 64.776 111.152 119.076 232.44 152.892l18.4 5.144c114.016 31.928 212.48 59.504 276.392 23.504 28.6-16.108 47.812-42.984 58.74-82.168 38.764-139.056-70.64-291.484-243.88-339.784z" fill="#6E6E96" p-id="1471"></path><path d="M881.12 604.316c12.816 11.216 12.816 29.4 0 40.616-12.82 11.216-33.6 11.216-46.42 0s-12.82-29.4 0-40.616c12.816-11.216 33.6-11.216 46.416 0M626.3 517.208c21.964 16.864 21.964 44.2 0 61.064-21.968 16.86-57.584 16.86-79.552 0-21.968-16.864-21.968-44.2 0-61.064 21.968-16.864 57.584-16.864 79.552 0M768.592 459.1c14.42 10.416 14.42 27.3 0 37.716-14.42 10.412-37.8 10.412-52.22 0-14.42-10.416-14.42-27.3 0-37.72 14.42-10.412 37.8-10.412 52.22 0" fill="#E0B536" p-id="1472"></path><path d="M693.632 214.648c24.832 16.824 24.832 44.104 0 60.924-24.84 16.824-65.104 16.824-89.936 0-24.84-16.82-24.84-44.1 0-60.92 24.832-16.824 65.1-16.824 89.936 0M289.04 297.632c33.648 25.64 33.648 67.2 0 92.84-33.644 25.636-88.2 25.636-121.848 0-33.644-25.64-33.644-67.2 0-92.84C200.84 272 255.392 272 289.04 297.632M428.496 150.704c20.028 13.62 20.028 35.7 0 49.32-20.028 13.62-52.5 13.62-72.528 0-20.028-13.62-20.028-35.7 0-49.32 20.028-13.62 52.5-13.62 72.528 0" fill="#D67B7B" p-id="1473"></path></svg>